<svg xmlns="http://www.w3.org/2000/svg" viewBox="0 0 200 200">
  <defs>
    <linearGradient id="bg2" x1="0" y1="0" x2="1" y2="1"><stop offset="0%" stop-color="#f5a0a0"/><stop offset="100%" stop-color="#e8837c"/></linearGradient>
  </defs>
  <circle cx="100" cy="100" r="100" fill="url(#bg2)"/>
  <path d="M55 75 Q50 120 55 160 Q58 170 65 165 Q62 120 65 80 Z" fill="#5a3a30" opacity="0.9"/>
  <path d="M145 75 Q150 120 145 160 Q142 170 135 165 Q138 120 135 80 Z" fill="#5a3a30" opacity="0.9"/>
  <circle cx="100" cy="82" r="38" fill="#fde8d0"/>
  <path d="M60 68 Q75 40 100 38 Q125 40 140 68 Q135 55 100 50 Q65 55 60 68 Z" fill="#5a3a30"/>
  <ellipse cx="100" cy="170" rx="50" ry="42" fill="#fff5f5" opacity="0.9"/>
  <circle cx="86" cy="80" r="4" fill="#5a3a30"/>
  <circle cx="114" cy="80" r="4" fill="#5a3a30"/>
  <circle cx="87" cy="79" r="1.5" fill="#fff"/>
  <circle cx="115" cy="79" r="1.5" fill="#fff"/>
  <ellipse cx="85" cy="88" rx="6" ry="3" fill="#f5a0a0" opacity="0.3"/>
  <ellipse cx="115" cy="88" rx="6" ry="3" fill="#f5a0a0" opacity="0.3"/>
  <path d="M93 95 Q100 101 107 95" fill="none" stroke="#d4736a" stroke-width="2.5" stroke-linecap="round"/>
  <circle cx="135" cy="55" r="8" fill="#ffb7c5" opacity="0.6"/>
  <circle cx="128" cy="62" r="5" fill="#ffb7c5" opacity="0.4"/>
</svg>