<svg xmlns="http://www.w3.org/2000/svg" viewBox="0 0 200 200">
  <defs>
    <linearGradient id="bg3" x1="0" y1="0" x2="1" y2="1"><stop offset="0%" stop-color="#9b8ec9"/><stop offset="100%" stop-color="#7c6fbd"/></linearGradient>
  </defs>
  <circle cx="100" cy="100" r="100" fill="url(#bg3)"/>
  <circle cx="100" cy="82" r="38" fill="#fde8d0"/>
  <path d="M58 72 Q72 38 100 35 Q128 38 142 72 L140 82 Q132 55 100 48 Q68 55 60 82 Z" fill="#3a2a5a"/>
  <ellipse cx="100" cy="170" rx="52" ry="44" fill="#f0eef8" opacity="0.9"/>
  <path d="M80 170 L85 145 L100 155 L115 145 L120 170" fill="#3a4a7a" opacity="0.6"/>
  <circle cx="86" cy="80" r="3.5" fill="#3a2a5a"/>
  <circle cx="114" cy="80" r="3.5" fill="#3a2a5a"/>
  <circle cx="87" cy="79" r="1.3" fill="#fff"/>
  <circle cx="115" cy="79" r="1.3" fill="#fff"/>
  <rect x="75" y="73" width="22" height="16" rx="8" fill="none" stroke="#555" stroke-width="2"/>
  <rect x="103" y="73" width="22" height="16" rx="8" fill="none" stroke="#555" stroke-width="2"/>
  <line x1="97" y1="81" x2="103" y2="81" stroke="#555" stroke-width="1.5"/>
  <line x1="75" y1="81" x2="70" y2="78" stroke="#555" stroke-width="1.5"/>
  <line x1="125" y1="81" x2="130" y2="78" stroke="#555" stroke-width="1.5"/>
  <path d="M94 96 Q100 100 106 96" fill="none" stroke="#c48a82" stroke-width="2" stroke-linecap="round"/>
</svg>