<svg xmlns="http://www.w3.org/2000/svg" viewBox="0 0 200 200">
  <defs>
    <linearGradient id="bg5" x1="0" y1="0" x2="1" y2="1"><stop offset="0%" stop-color="#5a8abf"/><stop offset="100%" stop-color="#4a7fb5"/></linearGradient>
  </defs>
  <circle cx="100" cy="100" r="100" fill="url(#bg5)"/>
  <circle cx="100" cy="82" r="38" fill="#fde8d0"/>
  <path d="M62 65 Q75 42 100 40 Q125 42 138 65 L136 72 Q128 52 100 48 Q72 52 64 72 Z" fill="#2a3a5a"/>
  <ellipse cx="100" cy="172" rx="55" ry="45" fill="#2a3a5a" opacity="0.8"/>
  <path d="M90 155 L100 145 L110 155" fill="none" stroke="#fff" stroke-width="2"/>
  <path d="M92 155 L100 165 L108 155" fill="#c44040" opacity="0.7"/>
  <circle cx="86" cy="79" r="3.5" fill="#2a3a5a"/>
  <circle cx="114" cy="79" r="3.5" fill="#2a3a5a"/>
  <circle cx="87" cy="78" r="1.3" fill="#fff"/>
  <circle cx="115" cy="78" r="1.3" fill="#fff"/>
  <path d="M80 72 L92 74" stroke="#2a3a5a" stroke-width="2.5" stroke-linecap="round"/>
  <path d="M120 72 L108 74" stroke="#2a3a5a" stroke-width="2.5" stroke-linecap="round"/>
  <path d="M95 96 Q100 99 105 96" fill="none" stroke="#c48a82" stroke-width="2" stroke-linecap="round"/>
</svg>