<svg xmlns="http://www.w3.org/2000/svg" viewBox="0 0 200 200">
  <defs>
    <linearGradient id="bg" x1="0" y1="0" x2="1" y2="1"><stop offset="0%" stop-color="#0f8f72"/><stop offset="100%" stop-color="#08614f"/></linearGradient>
  </defs>
  <circle cx="100" cy="100" r="100" fill="url(#bg)"/>
  <circle cx="100" cy="82" r="38" fill="#fde8d0"/>
  <ellipse cx="100" cy="170" rx="55" ry="45" fill="#ffffff" opacity="0.9"/>
  <path d="M62 72 Q70 45 100 42 Q130 45 138 72 L135 80 Q130 60 100 55 Q70 60 65 80 Z" fill="#2d5a4e"/>
  <circle cx="85" cy="80" r="4" fill="#333"/>
  <circle cx="115" cy="80" r="4" fill="#333"/>
  <circle cx="86" cy="79" r="1.5" fill="#fff"/>
  <circle cx="116" cy="79" r="1.5" fill="#fff"/>
  <path d="M92 95 Q100 102 108 95" fill="none" stroke="#e8837c" stroke-width="2.5" stroke-linecap="round"/>
  <rect x="82" y="130" width="36" height="8" rx="4" fill="#0f8f72" opacity="0.3"/>
  <circle cx="100" cy="134" r="3" fill="#0f8f72" opacity="0.5"/>
</svg>